<?xml version="1.0" encoding="utf-8"?>
<!-- Generator: Adobe Illustrator 24.0.0, SVG Export Plug-In . SVG Version: 6.00 Build 0)  -->
<svg version="1.1" id="Layer_1" xmlns="http://www.w3.org/2000/svg" xmlns:xlink="http://www.w3.org/1999/xlink" x="0px" y="0px"
	 viewBox="0 0 750 750" style="enable-background:new 0 0 750 750;" xml:space="preserve">
<style type="text/css">
	.st0{fill:#2589BD;}
</style>
<path class="st0" d="M250.7,195.5c-1.6-3.2-3-4.4-7-2.8c-9.1,3.8-18.6,6.2-28.6,6c-14.3-0.3-23.9-7.2-29.4-20.1
	c-1.5-3.5-3.2-4.8-7.1-4.5c-8.2,0.5-16.4,0.1-24.4-2.3c-10.7-3.2-16-9.8-16.2-20.9c-0.1-3.4-1.7-3.2-4.1-3.1
	c-17.3,0.7-34.5-0.2-51-6c-13.9-5-24.7-13.5-30.4-27.5c-1.8-4.5-1.8-4.6,3-4.6c28.3,0,56.6,0,84.9,0c0-0.2,0-0.4,0-0.6
	c24.9,0,49.9-0.5,74.8,0.2c13.8,0.4,26.3-2.8,38.7-8.1c10.1-4.4,20.3-8.7,31-11.4c21.2-5.3,38,1.7,48.9,20.8
	c0.2,0.3,0.4,0.7,0.6,1.1c2.4,6.4,6,10.9,13.9,9c1.9-0.5,2.4,0.7,2.4,2.6c-0.1,27.3-0.1,54.7-0.1,82c0,1.8-0.3,2.9-2.5,3.2
	c-6.4,0.7-12.8,2.3-18.6,5c-10.8,5.2-21.2,3.9-31.6-0.5c-3.1-1.3-6.1-1.5-9.4-1c-9.1,1.2-18,1.1-26.3-3.8
	C257.1,205.1,253.3,200.7,250.7,195.5z M665.4,109.6c-44.9-0.2-89.8-0.6-134.6-0.4c-10.1,0-19.4-1.9-28.7-5.5
	c-10.4-4.1-20.5-9-31.2-12.2c-12.2-3.7-24.5-5.7-36.6,0.5c-9.7,4.9-16.2,13-20.6,22.5c-2.3,4.9-5.2,7-10.4,6.1
	c-3.7-0.7-4.5,1.1-4.4,4.5c0.2,17.4,0.1,34.8,0.1,52.2c0,9.2,0,18.3,0,27.5c0,2.3,0.4,3.6,3.2,3.9c6.2,0.6,12.3,2.2,17.9,4.8
	c11,5.3,21.7,3.9,32.4-0.7c2.6-1.1,5.1-1.5,7.8-0.9c4.4,0.9,8.9,0.9,13.3,0.5c9.7-0.8,17.6-4.7,23.1-13c1.7-2.6,2.9-6.4,5.2-7.4
	c2.7-1.1,5.9,1.8,9,2.7c7.1,2.1,14.2,4,21.7,4.1c15.6,0.2,25.8-6.3,31.7-20.8c1.2-3,2.7-4,5.9-3.8c6,0.4,12.1,0.3,18.1-0.6
	c15.7-2.5,21.2-7.9,23.3-23.3c0.3-2.5,1.6-2.3,3.3-2.3c4.4,0.1,8.9,0.4,13.3,0.2c18-0.7,35.8-2.5,51.5-12.7
	c9.3-6.1,15.7-14.4,18.9-25.7C687.2,109.6,676.3,109.7,665.4,109.6z M498.3,252.4c3.8,16.8,1,32.5-11.8,45.6
	c-15,15.3-33.5,24.1-53.7,29.7c-16.8,4.7-34.2,6-51.4,8.2c-8.1,1-16.3,1.9-24.4,3.5c-9.1,1.8-16.7,6.3-18.9,16
	c-2.4,10.5,1.6,19,9.9,25.6c2.6,2.1,5.3,4,8.5,6.4c-12.3,5.3-23.8,10.5-34.5,17.3c-1,0.6-1.9,0.8-3,0.1
	c-10.2-7.2-20.2-14.6-24.9-26.8c-6.7-17.2-3-33.3,7.3-47.8c14.1-19.7,33.8-30.4,57.8-32.8c17.3-1.8,34.6-2.9,51.9-4.9
	c17.9-2.1,35.1-6.8,50.2-17.5c4.1-2.9,6-7,5.5-11.8c-0.5-4.8-4.5-7.5-9.2-6.9c-2.7,0.4-5.1,1.7-7.4,3c-8.4,4.7-16.5,10.3-26.1,12.4
	c-4.3,0.9-4.4,0.9-3.8-3.3c0.3-2.1,0.5-4.2,0.2-6.7c-1.7,2.7-3.4,5.3-5,8.1c-0.9,1.7-2,2.1-3.9,1.7c-10.5-1.9-15.5-9.6-12.9-20.1
	c3.7-14.6,19.2-27.2,34.3-28.6c11.6-1,23.1-1.2,34.5,1.7C482.4,228.4,494.7,236.4,498.3,252.4z M417.7,246.3c-0.3-2-1.3-3.3-3.4-3.3
	c-2.3,0-3.6,1.3-3.5,3.5c0.1,1.9,1.4,3.2,3.5,3.1C416.3,249.5,417.5,248.4,417.7,246.3z M355.1,108.6c3.5,2.4,4.2,4.8,4.2,8.5
	c-0.1,27.9-0.1,55.8-0.1,83.7c-0.1,0-0.2,0-0.4,0c0,28.6,0.1,57.2-0.1,85.7c0,3.3,0.7,4.5,4.2,4.1c8.2-1,16.3-1.7,24.5-2.3
	c3-0.2,3.1-1.8,3.1-4c0-7.7,0.1-15.4,0.1-23c0.2-48.3,0-96.5-0.5-144.8c0-2.7-0.2-5,2.7-7c12.7-8.5,17.6-24.5,12.2-38.5
	c-5.3-13.7-19.7-22.3-34.6-20.6c-12.8,1.5-23.8,11.1-27.2,23.8C340,86.9,344.7,101.6,355.1,108.6z M445.7,332.9
	c-15.4,3.9-30.9,6.8-46.3,9.9c-0.2,0.9,0.3,1.2,0.8,1.5c12.2,8.4,12.4,23.6-2.3,32.6c-6.1,3.7-12.5,6.9-19.1,9.7
	c-14.1,6-28.8,10.6-42.4,17.7c-11.6,6-21.4,13.8-27.1,26.1c-10.7,22.9-4.8,41.9,16.7,53.2c1.1,0.6,2.1,1.6,3.7,0.6
	c8.8-5.3,17.8-10.3,27.9-14.3c-1.1-1-1.7-1.6-2.4-2.2c-11.9-10.2-12.1-27.2,4.1-35.3c14.5-7.2,29.6-12.9,44.6-18.6
	c13.3-5.1,26.5-10.5,37.9-19.4c5-3.9,10.1-7.9,12.5-14.4c5.9-16.1,1.8-31-5-45.6C448.4,332.3,447.2,332.5,445.7,332.9z M297.2,318.4
	c-11.5-5.1-22.7-10.4-32.2-19c-15.3-13.9-17.8-31.2-12.7-49.9c3.1-11.4,12-18.5,22.7-22.5c16.2-6.1,33.1-7.1,49.6-2.2
	c14.6,4.4,24.7,14.3,27,30.2c1.5,10.8-5.3,15.1-14.4,16.8c-1.8,0.3-2.4-0.9-3.1-2c-1.6-2.6-3.2-5.2-4.8-7.8
	c-0.3,0.1-0.5,0.3-0.8,0.4c0.3,2.2,0.6,4.5,1,6.7c0.5,2.6-0.3,3.3-2.9,2.8c-6.7-1.4-12.6-4.5-18.5-7.8c-3.5-2-6.9-4.2-10.5-6
	c-5.9-3-10.9-2.4-13.4,1.6c-2.8,4.5-0.9,11.5,4,15c8.7,6.2,18.3,10.2,28.5,13.1c8.2,2.3,16.5,3.7,24.9,5.1c0.2,1-0.6,1.1-1.2,1.3
	c-14.5,4.4-26.7,12.6-37.3,23.3C301.2,319.3,299.7,319.4,297.2,318.4z M331.6,246.5c0.1,2,1.4,3.2,3.5,3.1c2.1,0,3.3-1.3,3.3-3.3
	c0-2-1.2-3.2-3.5-3.4C333,243.2,331.5,244.3,331.6,246.5z M426.3,415.7c-2.1-1.4-3.8-1.9-6.3-0.8c-6.3,2.6-12.8,4.9-19.2,7.4
	c-2.5,0.9-6.2,1.2-7.2,3c-1,1.9,2,4.5,3.1,6.9c6.8,14.6,1.7,30.2-12.4,37.6c-1.8,0.9-3.6,1.8-5.5,2.5c-9.7,3.3-19.5,6.2-29,9.8
	c-14.2,5.2-25.3,13.6-28.7,29.5c-2.7,12.7-1,24.1,9.8,32.8c2.5,2,4.2,2.4,6.8,0c5.6-5.1,12-9.1,18.8-12.4c3.2-1.6,3.6-2.6,1.5-5.7
	c-4.8-7-2.9-12.4,4.8-15.6c8.3-3.5,16.6-7,24.8-10.6c11.2-5,23-8.5,33.4-15c13.5-8.4,21.6-20.4,21.9-34.1
	C442.5,433.6,437.3,423.3,426.3,415.7z M332.5,563.4c-4.2,8.1-2.4,15.6,4.7,21.2c5.6,4.4,12.2,6.7,18.9,8.7c2.7,0.8,2.7-0.5,2.3-2.4
	c-0.6-3.4-1.3-6.9-1.5-10.4c-0.3-5.8,1.7-9.5,7.2-12.2c14.8-7.2,29.1-15.2,43.9-22.3c7.8-3.8,11.6-10,13.6-17.9
	c0.9-3.7,1.3-7.4,1.4-11.2c0.2-6.1-1.4-14.9-3.5-20.6c-0.9-2.5-1.7-3.4-4.5-2c-6.3,3.1-12.7,5.9-19.2,8.4c-3.7,1.4-4.7,2.5-3,6.7
	c3.5,8.6,0.5,14.2-7.9,17.4c-8.1,3.1-16,6.4-23.6,10.4C349.5,543.5,338.8,551.1,332.5,563.4z M414.8,575.1
	c1.3-6.5,1.1-12.9-2.7-18.7c-1.7-2.6-3.6-4-6.9-1.9c-4.5,2.9-9.4,5.3-14.2,7.7c-2,1-2.4,1.9-1.4,4c2.3,5.2,1.2,9.7-3.4,13.2
	c-1.6,1.2-3.1,2.6-4.7,3.7c-12.4,8.2-25,16.4-37.4,24.6c-9,6-17.7,12.5-25.5,21.3c3.9-0.4,6.8-1.7,9.8-2.6
	c24-7.7,46.3-19.4,69.3-29.6C407.3,592.6,412.8,585.2,414.8,575.1z M387.1,340.3c-8.1,1.1-16.3,2.1-24.5,2.8
	c-2.7,0.3-3.3,1.4-3.2,3.8c0.2,11.2,0.3,22.3,0.4,33.5c0,2.5,0.8,3,3.1,2.5c7.6-1.9,15.3-4,22.9-5.4c1-0.2,2-0.5,2.8-1.1
	c0.9-0.7,1-1.7,1-2.7c0-0.3,0-0.7,0-1c0-5.6,0.3-11.2,0.5-16.8c0.2-4.2-0.1-8.3,0.1-12.5C390.3,341,389.8,340,387.1,340.3z
	 M386,426.9c-7.7,3.2-15.4,6.4-23.1,9.5c-1.3,0.5-1.8,1.4-1.8,2.8c0.2,8.7,0.3,17.5,0.4,26.2c0,1.8,0.7,2.3,2.5,1.7
	c7.2-2.2,14.4-4.3,21.7-6.3c1.9-0.5,2.6-1.5,2.6-3.4c-0.1-4.7,0.4-14.1,0.6-14.1c0-4.7-0.1-9.4,0-14.1
	C388.9,427.1,388.5,425.9,386,426.9z M379.4,610.2c-3,1.3-5.9,2.7-9,3.5c-3,0.8-3.6,2.4-3.3,5.3c1.2,15.7,2.1,31.4,3.4,47.1
	c0.9,11.1,1.9,22.2,3.9,33.6c1.7-1.1,1.4-2.4,1.5-3.6c1-8.2,2.1-16.3,2.7-24.5c1.5-19.7,2.8-39.5,4.3-59.2
	C383.1,609.1,381.8,609.2,379.4,610.2z M402.8,602.7c-1.1-0.7-2-1.1-3.3-0.5c-4.1,2-8.2,3.9-13.2,6.2c12.9,8.3,25.9,14.1,40.3,16.9
	C419.7,616.7,412,608.9,402.8,602.7z M384.3,507.2c-5,1.9-10.1,3.5-15.2,5.3c-7.7,2.8-6.2,0.9-6.2,9.3c0.1,1.1,0.3,2.7,0.2,4.3
	c-0.1,3.1,1.2,3.2,3.6,2.1c3.5-1.6,7.2-3,10.8-4.4c9.3-3.6,9.3-3.6,9.3-13.6c0-0.4,0-0.8,0-1.2C387.1,506.9,386.3,506.5,384.3,507.2
	z M376.9,582c7-2.8,8.7-7.8,7.9-14.5c-0.2-1.9-0.4-2.7-2.5-1.9c-5.1,2.1-10.2,4.1-15.3,6.1c-1.2,0.5-2,1.1-1.9,2.7
	c0.1,4.5,0,9,0,14.7C369.8,586.1,373.1,583.5,376.9,582z"/>
</svg>
